<?xml version="1.0" encoding="UTF-8" standalone="no"?>
<!-- Created with Inkscape (http://www.inkscape.org/) -->

<svg
   xmlns:dc="http://purl.org/dc/elements/1.1/"
   xmlns:cc="http://creativecommons.org/ns#"
   xmlns:rdf="http://www.w3.org/1999/02/22-rdf-syntax-ns#"
   xmlns:svg="http://www.w3.org/2000/svg"
   xmlns="http://www.w3.org/2000/svg"
   xmlns:sodipodi="http://sodipodi.sourceforge.net/DTD/sodipodi-0.dtd"
   xmlns:inkscape="http://www.inkscape.org/namespaces/inkscape"
   id="svg4715"
   version="1.1"
   inkscape:version="0.91 r13725"
   width="1700"
   height="2338"
   viewBox="0 0 1700 2338"
   sodipodi:docname="orav_vektor.svg">
  <metadata
     id="metadata4721">
    <rdf:RDF>
      <cc:Work
         rdf:about="">
        <dc:format>image/svg+xml</dc:format>
        <dc:type
           rdf:resource="http://purl.org/dc/dcmitype/StillImage" />
        <dc:title></dc:title>
      </cc:Work>
    </rdf:RDF>
  </metadata>
  <defs
     id="defs4719" />
  <sodipodi:namedview
     pagecolor="#ffffff"
     bordercolor="#666666"
     borderopacity="1"
     objecttolerance="10"
     gridtolerance="10"
     guidetolerance="10"
     inkscape:pageopacity="0"
     inkscape:pageshadow="2"
     inkscape:window-width="1366"
     inkscape:window-height="705"
     id="namedview4717"
     showgrid="false"
     inkscape:zoom="0.94"
     inkscape:cx="739.57357"
     inkscape:cy="2795.0063"
     inkscape:window-x="-8"
     inkscape:window-y="-8"
     inkscape:window-maximized="1"
     inkscape:current-layer="layer10" />
  <g
     inkscape:groupmode="layer"
     id="layer2"
     inkscape:label="saba"
     style="display:inline">
    <path
       style="opacity:1;fill:#f6804a;fill-opacity:1;fill-rule:evenodd;stroke:none;stroke-width:1px;stroke-linecap:butt;stroke-linejoin:miter;stroke-opacity:1"
       d="M 185.18519,34.296297 C 150.44589,101.04866 88.587793,181.36042 88.888889,230.59259 50.978005,347.51582 73.075895,404.43027 70.37037,486.14814 c 16.17206,173.9514 58.33361,321.91331 103.70371,466.66667 19.29351,76.39009 37.92884,152.56069 25.92592,218.51859 -50.63511,91.6711 6.92267,191.4791 -7.4074,274.074 20.60314,153.0459 53.92414,287.0151 133.33333,351.8519 l 51.85185,25.9259 c 30.4881,-149.2761 13.95353,-293.6119 66.66667,-451.8519 l 44.44444,-70.3703 16.41967,-31.2346 c -59.25926,41.4387 -131.23448,93.0185 -190.49374,105.3086 -24.66786,-9.8765 -29.50853,-34.5678 -29.62963,-74.074 7.95098,-45.3335 3.24405,-84.3381 48.14815,-148.1482 49.63082,-78.8469 124.84202,-140.6403 203.7037,-199.99999 27.16049,-6.43164 65.4321,-30.1974 92.59259,-18.51852 C 576.1123,905.09757 533.77217,864.72165 500,815.77777 478.31797,775.03703 480.88541,734.29629 477.77778,693.55555 498.93134,629.68983 529.24274,586.84249 560.16016,542.5045 l 25.02503,-19.31932 C 575.94195,471.96664 567.23127,413.87324 548.14815,352.81481 l 3.70371,-59.25926 C 512.78439,265.86448 461.27233,229.87702 392.5926,182.44444 347.53842,136.1557 299.34477,86.727479 244.44445,30.592593 219.06456,3.6931427 201.11548,13.947761 185.18519,34.296297 Z"
       id="path5268"
       inkscape:connector-curvature="0"
       sodipodi:nodetypes="ccccccccccccccccccccccccc" />
    <path
       style="opacity:1;fill:#ffaa70;fill-opacity:1;fill-rule:evenodd;stroke:none;stroke-width:1px;stroke-linecap:butt;stroke-linejoin:miter;stroke-opacity:1"
       d="m 647.05882,924.27451 c -43.14635,7.78509 -108.94443,3.10102 -178.43137,82.35299 -64.4548,47.813 -129.35412,102.9826 -134.76805,136.0354 -52.12537,69.908 -59.81312,127.0414 -51.58489,171.9253 5.65897,21.5686 -12.90355,41.1373 25.45098,62.7059 51.15067,-17.7149 65.37793,11.4714 211.88235,-121.647 36.7784,-36.6013 90.06161,-73.2027 152.94118,-109.804 43.85365,9.1503 43.42283,18.3007 58.82353,27.451 11.44597,7.5566 20.33365,2.3218 29.41176,-1.9608 4.63361,-11.7647 -11.73645,-23.5294 -27.45098,-35.2941 19.60784,-20.367 39.21569,-28.8355 58.82353,-39.2157 l 3.92157,-11.7647 -45.09804,5.8824 17.64706,-33.3334 8.41559,-2.2146 c 11.92361,-2.5298 19.24144,-5.0595 28.83931,-7.5893 0.32175,-19.3597 -2.71211,-21.0883 -23.52941,-21.5686 l -49.01961,23.5294 33.33334,-52.94117 c -1.65462,-6.84212 -2.11009,-14.88338 -15.68628,-9.80392 l -37.2549,47.05879 -35.29412,-35.29409 c -8.58848,-5.25554 -16.35927,-8.33056 -17.64706,5.88239 11.14249,19.6078 24.31833,39.2157 25.4902,58.8235 -31.09898,21.6751 -46.92899,12.8123 -68.62745,15.6863 -88.70602,15.0327 -85.80583,30.0653 -123.52941,45.098 l -17.64706,1.9608 74.5098,-62.7451 66.66667,-74.50981 c 13.32661,-20.3944 23.48896,-41.84355 29.41176,-64.70588 z"
       id="path5284"
       inkscape:connector-curvature="0"
       sodipodi:nodetypes="cccccccccccccccccccccccccccccc" />
  </g>
  <g
     inkscape:groupmode="layer"
     id="layer3"
     inkscape:label="sabaots">
    <path
       style="fill:#ffffff;fill-opacity:1;fill-rule:evenodd;stroke:none;stroke-width:1px;stroke-linecap:butt;stroke-linejoin:miter;stroke-opacity:1"
       d="m 433.33333,230.5926 c -18.51852,17.02804 -37.03704,36.73616 -55.55556,66.66667 -24.18275,4.64702 -44.33716,-2.79097 -55.55555,-37.03704 C 237.22198,265.73069 212.79056,290.56415 200,323.18519 l -37.03704,-3.7037 c -42.22305,4.8144 -47.25717,28.22326 -66.666663,44.44444 -14.455107,-51.6781 -13.625742,-99.71288 23.941793,-170.89947 -5.64,-40.74074 47.4557,-95.767198 90.87302,-136.507942 -0.35452,-37.005288 11.00749,-18.004595 28.36494,-13.459802 45.64739,46.881957 64.28813,78.952384 97.56098,113.459804 31.76824,25.51768 58.89961,62.62752 96.2963,74.07408 z"
       id="path5271"
       inkscape:connector-curvature="0"
       sodipodi:nodetypes="ccccccccccc" />
  </g>
  <g
     inkscape:groupmode="layer"
     id="layer5"
     inkscape:label="jalad">
    <path
       style="opacity:1;fill:#f89d70;fill-opacity:1;fill-rule:evenodd;stroke:none;stroke-width:1px;stroke-linecap:butt;stroke-linejoin:miter;stroke-opacity:1"
       d="m 573.07692,1211.29 c -25.90671,18.6388 -48.75688,21.0153 -69.78107,54.3017 -118.76725,152.8314 -128.39689,361.9221 -132.77461,546.4703 -56.53254,31.3797 -123.44752,54.6936 -143.59816,95.1688 -48.58176,53.6419 -70.42809,67.1806 -100,92.3077 5.59909,-38.4616 12.0176,-76.9231 7.6923,-115.3847 -33.70255,-9.3231 -71.635274,-8.6499 -115.384611,42.3077 21.723104,43.0683 40.207473,74.6145 50,96.1539 10.25641,45.6882 20.512821,69.5967 30.769231,96.1538 94.44513,-59.1877 184.4199,-120.6106 338.46154,-150 165.92669,-7.3481 324.96854,-35.3508 500,-15.3846 197.35366,45.0537 417.90216,89.3225 469.23076,153.8462 16.0842,5.4767 33.7852,2.8692 53.8462,-11.5385 26.7151,-73.3541 85.3668,-113.1007 142.3077,-146.1539 -12.091,-47.9222 -54.0084,-60.5754 -96.1538,-88.4614 -33.1876,46.5191 -64.8092,67.6512 -73.077,115.3845 -36.2726,-112.0702 -130.3469,-108.537 -203.8462,-146.1538 100.2777,-160.7763 21.4237,-256.7139 11.5385,-380.7692 -10.3985,-123.9329 -67.3834,-165.7986 -96.1538,-234.6155 -14.1132,3.8038 -34.0583,-15.7201 -34.6154,42.3078 45.3246,115.1773 39.2195,217.4972 46.1538,323.0769 -19.957,115.429 -50.9225,153.7986 -80.7692,200 -86.94491,60.311 -152.09475,66.1343 -219.23079,76.9231 -105.43099,7.2027 -167.39201,-7.3297 -211.53846,-30.7693 -69.64496,-66.2524 -92.61094,-179.1839 -123.07693,-284.6153 -6.70862,-116.7661 28.5363,-223.1808 50,-330.5562 z"
       id="path5279"
       inkscape:connector-curvature="0"
       sodipodi:nodetypes="cccccccccccccccccccccccccc" />
  </g>
  <g
     inkscape:groupmode="layer"
     id="layer6"
     inkscape:label="vasak k채si" />
  <g
     inkscape:groupmode="layer"
     id="layer7"
     inkscape:label="parem k채si">
    <path
       style="opacity:1;fill:#ffaa70;fill-opacity:1;fill-rule:evenodd;stroke:none;stroke-width:1px;stroke-linecap:butt;stroke-linejoin:miter;stroke-opacity:1"
       d="m 1015.6863,881.13725 c 55.1034,10.10812 112.2232,36.34746 172.549,88.2353 43.8198,52.28755 104.8973,104.57515 125.4902,156.86275 38.5838,77.5864 28.6132,95.8287 21.5686,117.6471 -22.3428,24.5447 -37.3006,26.9345 -54.9019,37.2549 -27.8099,3.0375 -51.9063,-5.0656 -74.5098,-17.6471 -35.9477,-28.414 -71.8955,-44.2006 -107.8432,-62.7451 -54.6226,-22.5042 -106.66167,-52.4384 -151.19825,-49.7276 -18.90513,-9.0521 -37.01714,-4.481 -50.76252,-3.2136 l -15.02562,20.75 -18.30771,32.1912 c -5.22876,7.0958 -10.45752,15.5173 -15.68628,5.8824 l 9.80393,-31.3726 -29.41177,39.2157 c -6.6346,2.7623 -10.05777,0.7075 -11.76471,-3.9216 l 19.60785,-52.9412 c -13.67244,12.9658 -30.24772,31.7373 -39.21569,35.2942 -14.07468,4.3142 -18.89354,0.6949 -15.68627,-9.804 8.67672,-11.1332 20.84814,-26.926 45.09804,-58.8235 l 0,-11.7647 c -24.75236,15.5178 -49.02129,30.0687 -68.62745,35.2941 -11.52708,-5.8823 -11.59623,-11.7647 -13.7255,-17.647 l 58.82353,-39.2157 9.80393,-7.8432 -49.01961,1.9608 -1.96079,-17.647 50.9804,-21.5687 -7.84314,-39.2156 -1.96079,-15.68632 c 5.22876,0.49033 10.45752,-10.76315 15.68628,9.80392 3.02534,24.1269 23.04763,36.9225 41.17647,50.9804 6.85185,6.5577 11.81882,16.8852 23.52941,13.7255 2.6573,-6.9155 45.31851,-19.9828 100,-21.5686 53.67106,5.806 103.81956,15.1347 147.05886,31.3725 l 25.4902,15.6863 c -27.2492,-29.21 -53.9777,-57.8993 -86.2745,-92.15689 -25.9898,-28.75817 -40.5991,-57.51634 -50.9804,-86.27451 l -13.7255,-29.41176 z"
       id="path5287"
       inkscape:connector-curvature="0"
       sodipodi:nodetypes="ccccccccccccccccccccccccccccccccccccccc" />
  </g>
  <g
     inkscape:groupmode="layer"
     id="layer8"
     inkscape:label="k천rvad">
    <path
       style="opacity:1;fill:#f89d70;fill-opacity:1;fill-rule:evenodd;stroke:none;stroke-width:1px;stroke-linecap:butt;stroke-linejoin:miter;stroke-opacity:1"
       d="m 580.91821,526.66572 c 44.18134,-1.52225 113.66837,-52.09762 169.13625,-76.19295 3.30833,-11.5028 14.86005,-43.59817 18.07236,-101.87619 C 755.04315,274.984 737.05968,214.85469 682.35294,136.03922 672.30691,123.20943 678.67502,93.9655 700,49.764706 681.04575,20.330932 662.0915,27.87048 643.13725,28.196078 c -20.26144,11.296931 -40.52287,8.009144 -60.78431,3.921569 -7.35867,3.269947 -30.77676,8.70021 -37.2549,21.568628 -6.00142,7.189542 -8.26057,14.379085 -1.96079,21.568627 9.22529,15.879342 30.4867,26.998118 35.34893,47.102308 3.78942,15.66832 -13.96606,47.77163 -9.06607,55.56769 -43.28035,173.47012 -16.34121,97.49905 -22.57245,124.16265 -0.96256,4.11883 4.55247,-9.36432 1.21547,-1.34245 -10.20007,71.04025 13.1379,158.65503 32.85508,225.92062 z"
       id="path5290"
       inkscape:connector-curvature="0"
       sodipodi:nodetypes="cccccccccscscc" />
    <path
       style="fill:#ffffff;fill-opacity:1;fill-rule:evenodd;stroke:none;stroke-width:1px;stroke-linecap:butt;stroke-linejoin:miter;stroke-opacity:1"
       d="m 700,455.64706 c -34.58544,12.47338 -68.60625,25.51139 -98.03922,43.13725 -19.44444,-79.31373 -39.35977,-158.34492 -33.33333,-252.94117 -0.26828,-26.79739 14.05432,-53.59477 25.4902,-80.39216 -1.56181,-23.36684 4.02924,-42.5339 -13.72549,-80.392156 -3.45428,-17.086616 12.33415,-24.551876 29.41176,-31.372549 20.24081,-9.88643 39.47801,-23.787296 64.70588,-13.725491 1.83787,11.111111 6.11614,22.222223 -1.96078,33.333334 C 660.09387,97.93742 646.3054,123.46961 649.01961,138 c 14.55567,41.01017 36.06638,66.80508 45.76168,98.90583 2.76629,9.15908 13.36572,26.6493 11.76857,35.55391 19.92698,65.37717 15.71291,133.49641 -6.54986,183.18732 z"
       id="path5292"
       inkscape:connector-curvature="0"
       sodipodi:nodetypes="cccccccccscc" />
  </g>
  <g
     inkscape:groupmode="layer"
     id="layer9"
     inkscape:label="pea"
     style="display:inline">
    <path
       style="opacity:1;fill:#f89d70;fill-opacity:1;fill-rule:evenodd;stroke:none;stroke-width:1px;stroke-linecap:butt;stroke-linejoin:miter;stroke-opacity:1"
       d="m 645.09804,924.27451 c 20.12567,13.97177 33.80614,8.60796 49.01961,7.84314 -63.34193,-10.52848 -108.2408,-44.11077 -150.9804,-80.39216 -24.35053,-27.32947 -22.71289,-48.16189 -27.45098,-70.58824 15.64544,-25.80678 38.01128,-53.29366 74.50981,-84.31372 l 37.2549,-13.72549 c -4.77661,-0.6139 -29.1753,-19.32657 -27.45098,-39.21569 -4.13944,-19.78213 13.58884,-48.31135 35.29412,-78.43137 4.21778,-13.65143 35.11742,-20.63241 58.82353,-29.41176 40.64722,-4.93608 71.72773,-2.21878 86.27451,13.72549 11.25608,22.53673 27.02298,48.08068 23.52941,60.78431 -8.20602,43.31921 -31.77578,59.75188 -60.78432,66.66667 15.65948,5.65555 31.04948,11.22128 31.37255,11.7647 2.09901,-10.7152 12.30439,-17.37722 35.29412,-17.64706 44.15383,9.0673 56.65669,9.09146 64.70588,7.84314 -32.79699,12.95029 -42.12829,-15.16438 -54.90196,-37.2549 -8.10544,-18.21322 -5.54568,-39.9815 17.64706,-68.62745 -1.03571,-25.8407 38.46702,-34.30779 72.54902,-45.09804 21.48534,-16.22128 50.45745,-13.72564 82.35294,-3.92157 45.76034,24.18549 31.18764,29.15729 43.19984,43.70046 2.3126,41.45287 -10.3342,54.89794 -27.5136,71.98581 l 25.3732,-9.77026 4.1777,-0.0337 c 16.0885,-11.21159 61.0689,-5.91827 82.2138,-1.96078 21.4207,26.44594 33.367,51.31278 23.5295,72.54902 4.5182,24.18301 0.8416,48.36601 -11.7648,72.54902 -30.4567,43.01733 -62.7738,70.06141 -114.1032,90.87804 -15.4553,12.22192 -38.37339,16.32552 -60.78432,22.97337 l 37.093,7.96906 c 19.28352,-27.34123 64.60882,-44.47281 98.57892,-66.91851 41.0967,-28.64258 52.6064,-54.98755 64.7058,-98.03922 0.013,-22.14692 1.0501,-38.14398 -3.9215,-90.19608 -5.9453,-47.05882 -2.5969,-94.11765 -43.1373,-141.17647 -12.5027,-26.83475 -42.6327,-43.53243 -72.549,-60.78431 -52.98364,-13.76795 -83.9746,-18.30918 -132.1652,-27.2841 -88.25486,6.93561 -121.10576,22.62937 -154.10931,39.04881 -96.16009,17.61984 -136.68588,53.78445 -188.23529,86.27451 -35.07235,37.2549 -59.42989,72.07078 -68.36442,109.32568 -44.76267,61.25654 -17.86734,100.22502 -8.10617,141.65471 24.73132,59.94209 42.9064,67.43417 62.7451,88.23529 50.96562,59.202 79.55376,57.91954 96.07843,49.01961 z"
       id="path5299"
       inkscape:connector-curvature="0"
       sodipodi:nodetypes="cccccccccccccccccccccccccccccccccccccccccc" />
    <path
       style="display:inline;fill:none;fill-rule:evenodd;stroke:#000000;stroke-width:5.0999999;stroke-linecap:butt;stroke-linejoin:miter;stroke-miterlimit:4;stroke-dasharray:none;stroke-opacity:1"
       d="m 1137.2549,679.17647 c -83.1219,58.83952 -126.4347,76.80242 -213.72549,94.11765 -44.44444,19.60031 -88.88889,38.16461 -133.33333,37.2549 -32.13929,7.21783 -36.09107,7.38878 -49.01961,9.80392 -59.86446,-4.8354 -106.10293,-6.26429 -145.09804,-5.88235 -24.18301,1.56163 -48.36601,5.99756 -72.54902,-17.64706 -15.07732,-4.42659 -5.43241,-21.80512 4.39851,-36.19502 33.17142,-39.90061 40.51984,-47.03164 56.59224,-58.10426 23.06002,-23.68041 58.19605,-22.08542 144.8916,-23.34778 32.54185,0.68807 31.89143,5.39493 40.43456,12.08268 5.73416,-28.77333 57.68394,-13.89023 100.74192,-10.1219 62.41052,-7.43659 83.97453,-24.48956 126.47059,-36.90476 29.74817,-15.70558 68.30657,-23.61119 87.60507,-18.41736 15.0625,-5.3526 55.6675,-1.90574 52.591,53.36134 z"
       id="path5301"
       inkscape:connector-curvature="0"
       sodipodi:nodetypes="cccccccccccccc" />
  </g>
  <path
     style="opacity:1;fill:#f89d70;fill-opacity:1;fill-rule:evenodd;stroke:none;stroke-width:1px;stroke-linecap:butt;stroke-linejoin:miter;stroke-opacity:1"
     d="m 1031.3725,426.23529 -17.647,13.72549 L 900,410.54902 c -29.31144,-89.56757 10.10528,-166.52994 17.98081,-265.39425 2.93236,-27.568 2.45431,-85.698461 -6.2161,-111.076339 17.64706,13.945309 35.29411,14.781114 52.94117,7.843138 C 985.05322,34.474272 1004.1697,30.719611 1019.6078,38 l 9.804,1.960784 c -17.5191,30.786402 -18.9313,49.49257 -15.6863,64.705886 3.925,61.38618 17.1345,106.81683 23.5294,143.13725 9.4063,28.69925 20.022,45.62489 23.1324,57.8018 5.9174,23.16558 -1.3963,26.35822 1.9413,41.16869 -15.5316,69.83228 -22.6521,65.24272 -30.9561,79.46088 z"
     id="path5294"
     inkscape:connector-curvature="0"
     sodipodi:nodetypes="ccccccccccscc" />
  <path
     style="fill:#ffffff;fill-opacity:1;fill-rule:evenodd;stroke:none;stroke-width:1px;stroke-linecap:butt;stroke-linejoin:miter;stroke-opacity:1"
     d="m 935.29412,79.176471 c -1.96079,57.734169 -3.92157,115.945929 -5.88236,168.627449 -10.44937,47.05882 -12.90378,94.11765 7.84314,141.17647 l 5.88235,27.45098 68.62745,19.60785 21.3392,-86.52483 c 5.3069,-48.00013 -10.7623,-48.70963 -15.4568,-101.71047 -10.3921,-42.8889 -30.30424,-120.89507 -16.5833,-168.606593 -3.27634,-11.10271 -2.93172,10.343794 -1.0638,-5.903209 -11.76471,-5.228759 -23.52941,-7.843137 -35.29412,-7.843138 -12.66592,1.713165 -21.9643,6.793867 -29.41176,13.725491 z"
     id="path5296"
     inkscape:connector-curvature="0"
     sodipodi:nodetypes="ccccccccccc" />
  <path
     style="fill:none;fill-rule:evenodd;stroke:#000000;stroke-width:3.1;stroke-linecap:butt;stroke-linejoin:miter;stroke-opacity:1;stroke-miterlimit:4;stroke-dasharray:none"
     d="m 792.15686,808.58824 -1.96078,37.2549 0,7.84313 -37.2549,5.88236 -7.84314,-41.17647 z"
     id="path5303"
     inkscape:connector-curvature="0" />
  <path
     style="fill:none;fill-rule:evenodd;stroke:#000000;stroke-width:3.0999999;stroke-linecap:butt;stroke-linejoin:miter;stroke-miterlimit:4;stroke-dasharray:none;stroke-opacity:1"
     d="m 844.36796,801.9758 c -23.42755,8.35732 -33.62375,9.60016 -50.25031,10.70088 l -3.92157,39.04881 50.98039,0 3.92157,-45.09804 z"
     id="path5305"
     inkscape:connector-curvature="0"
     sodipodi:nodetypes="cccccc" />
  <a
     id="a5343" />
  <path
     style="fill:#000000;fill-rule:evenodd;stroke:#000000;stroke-width:3;stroke-linecap:butt;stroke-linejoin:miter;stroke-opacity:1;fill-opacity:0;stroke-miterlimit:4;stroke-dasharray:none"
     d="m 895.3125,753.625 c 99.6012,-44.22507 232.1698,-76.08736 398.4375,-95.3125"
     id="path5325"
     inkscape:connector-curvature="0"
     sodipodi:nodetypes="cc" />
  <path
     style="fill:#000000;fill-opacity:0;fill-rule:evenodd;stroke:#000000;stroke-width:3;stroke-linecap:butt;stroke-linejoin:miter;stroke-miterlimit:4;stroke-dasharray:none;stroke-opacity:1"
     d="m 887.5,727.0625 c 102.19421,-47.3404 213.4738,-90.13809 340.625,-125 L 1225,600.5"
     id="path5327"
     inkscape:connector-curvature="0"
     sodipodi:nodetypes="ccc" />
  <path
     style="fill:none;fill-rule:evenodd;stroke:#000000;stroke-width:3;stroke-linecap:butt;stroke-linejoin:miter;stroke-miterlimit:4;stroke-dasharray:none;stroke-opacity:1"
     d="M 707.8125,766.125 C 649.84688,846.87969 595.7474,926.99002 562.5,1003.625 l 0,0"
     id="path5329"
     inkscape:connector-curvature="0"
     sodipodi:nodetypes="ccc" />
  <path
     style="fill:none;fill-rule:evenodd;stroke:#000000;stroke-width:3;stroke-linecap:butt;stroke-linejoin:miter;stroke-opacity:1;stroke-miterlimit:4;stroke-dasharray:none"
     d="M 707.8125,741.125 C 581.28903,809.97147 461.44923,879.12175 425,952.0625 l 0,0"
     id="path5331"
     inkscape:connector-curvature="0"
     sodipodi:nodetypes="ccc" />
  <path
     style="fill:none;fill-rule:evenodd;stroke:#000000;stroke-width:3;stroke-linecap:butt;stroke-linejoin:miter;stroke-opacity:1;stroke-miterlimit:4;stroke-dasharray:none"
     d="m 701.5625,728.625 c -141.56936,6.17178 -256.83231,19.3586 -335.9375,42.1875 l 0,0"
     id="path5333"
     inkscape:connector-curvature="0"
     sodipodi:nodetypes="ccc" />
  <g
     inkscape:groupmode="layer"
     id="layer10"
     inkscape:label="n채gu"
     style="display:inline">
    <path
       style="fill:none;fill-rule:evenodd;stroke:none;stroke-width:1px;stroke-linecap:butt;stroke-linejoin:miter;stroke-opacity:1"
       d="m 861.90477,545.52896 c -12.96987,-6.86793 -44.64034,44.89321 -43.53283,68.17889 -8.29904,32.80769 4.24959,55.95403 34.26641,62.41956 38.78729,0.84335 88.93623,-2.92721 123.03733,-25.5148 31.68852,-13.56128 52.99532,-22.24979 63.06302,-43.01802 0.599,-12.31231 22.4362,-18.67225 6.7246,-30.98456 7.5215,-26.30624 -32.019,-45.01106 -63.28827,-52.12354 -57.4394,-16.93058 -94.28663,10.98098 -120.27026,21.04247 z"
       id="path5313"
       inkscape:connector-curvature="0"
       sodipodi:nodetypes="cccccccc" />
    <path
       style="fill:none;fill-rule:evenodd;stroke:none;stroke-width:1px;stroke-linecap:butt;stroke-linejoin:miter;stroke-opacity:1"
       d="m 679.27928,542.5045 c -48.33568,16.21622 -59.26892,34.81338 -60.58558,51.0296 -32.91344,32.36409 -13.27549,37.07978 -15.0901,51.67311 9.62033,23.74192 21.62163,29.64542 32.43244,37.83784 35.43543,-0.97249 70.87087,-2.93315 106.3063,-6.30631 26.7557,-8.39261 52.17895,-22.38213 52.8314,-45.01287 15.12757,-26.783 6.10597,-39.11047 -2.38095,-54.08623 -11.39428,-42.60334 -36.437,-46.46023 -64.28571,-44.40154 -23.019,-2.94053 -38.06005,5.09618 -49.2278,9.2664 z"
       id="path5311"
       inkscape:connector-curvature="0"
       sodipodi:nodetypes="ccccccccc" />
    <a
       style=""
       id="a5376" />
    <path
       sodipodi:nodetypes="cccccccccc"
       inkscape:connector-curvature="0"
       id="path5307"
       d="m 817.507,769.16246 c -10.15209,5.97653 -9.97744,5.47729 -31.23249,4.13166 -30.74479,-0.25627 -31.42878,-6.5247 -37.2549,-11.76471 -12.95362,-4.12325 -12.24376,-16.44459 -13.72549,-27.45098 9.7221,-26.00724 15.26647,-35.56889 26.595,-45.53598 4.39698,-1.62393 11.0132,-16.85376 28.69487,-15.39332 39.4653,-14.9744 70.1867,30.30326 56.91278,14.00983 19.39925,17.47462 19.82246,26.78854 13.28754,39.07633 -7.18954,13.096 -14.37908,23.50522 -21.56862,31.37255 -5.33006,5.5322 -11.89664,11.51303 -21.70869,11.55462 z"
       style="display:inline;fill:#382e38;fill-opacity:0.99702382;fill-rule:evenodd;stroke:none;stroke-width:1px;stroke-linecap:butt;stroke-linejoin:miter;stroke-opacity:1" />
  </g>
  <g
     inkscape:groupmode="layer"
     id="layer11"
     inkscape:label="silmad">
    <path
       style="display:inline;fill:#000000;fill-opacity:0.72835819;fill-rule:evenodd;stroke:none;stroke-width:1px;stroke-linecap:butt;stroke-linejoin:miter;stroke-opacity:1"
       d="m 884.68469,580.34234 c -11.18882,14.33101 -7.73665,18.42855 -9.00901,26.12613 -0.0687,8.76023 1.37638,16.38513 10.81081,18.01802 6.95588,1.25665 14.10536,1.54525 23.42342,-9.00901 3.41675,-3.81459 10.61458,-4.61151 12.29465,-29.32344 1.09577,-6.00032 -5.56412,-18.79239 -13.91981,-21.05636 -14.87716,2.25752 -23.2537,7.97335 -23.60006,15.24466 z"
       id="path5319"
       inkscape:connector-curvature="0"
       sodipodi:nodetypes="ccccccc" />
    <path
       style="display:inline;fill:#000000;fill-opacity:0.72941176;fill-rule:evenodd;stroke:none;stroke-width:1px;stroke-linecap:butt;stroke-linejoin:miter;stroke-opacity:1"
       d="m 721.62162,575.83784 c -11.37715,12.29518 -19.16837,22.7974 -16.21621,27.92793 -0.40822,9.48136 -2.78091,20.27235 3.6036,25.22522 l 14.41441,4.50451 c 8.13569,-1.31152 13.7865,-7.09792 24.32433,-18.01802 0.8991,-5.9069 5.32503,-13.26518 3.6036,-21.62162 -1.93234,-10.54974 -6.58172,-15.66539 -10.81081,-21.62163 -4.45493,-1.30035 -6.50045,-7.41951 -15.31531,0 z"
       id="path5315"
       inkscape:connector-curvature="0"
       sodipodi:nodetypes="ccccccccc" />
  </g>
  <g
     inkscape:groupmode="layer"
     id="layer13"
     inkscape:label="iirised">
    <path
       style="display:inline;fill:#ffffff;fill-opacity:1;fill-rule:evenodd;stroke:none;stroke-width:1px;stroke-linecap:butt;stroke-linejoin:miter;stroke-opacity:1"
       d="m 898.53383,582.70941 c -9.36542,4.7197 -7.09954,5.74916 -12.98975,14.064 -1.90024,5.05464 -3.53236,11.41435 3.64511,14.19956 3.9039,3.49511 8.49386,0.70913 12.39776,-12.43928 7.87911,-7.26026 0.84847,-16.16953 -3.05312,-15.82428 z"
       id="path5321"
       inkscape:connector-curvature="0"
       sodipodi:nodetypes="ccccc" />
    <path
       style="display:inline;fill:#ffffff;fill-opacity:1;fill-rule:evenodd;stroke:none;stroke-width:1px;stroke-linecap:butt;stroke-linejoin:miter;stroke-opacity:1"
       d="m 725.95279,588.45045 c -7.58031,8.31474 -14.14948,16.00964 -9.73657,24.32432 l 7.2072,6.30631 c 4.20421,-2.68546 7.50751,-5.1224 11.71172,-12.61261 0.5193,-8.98246 2.40198,-19.66915 -6.30631,-17.11712 z"
       id="path5317"
       inkscape:connector-curvature="0"
       sodipodi:nodetypes="cccccc" />
    <path
       sodipodi:nodetypes="ccccc"
       inkscape:connector-curvature="0"
       id="path5309"
       d="m 835.29412,712.5098 c 2.91093,12.4183 -1.17589,24.83661 -29.41177,37.25491 -32.76611,14.12426 -43.58367,9.95806 -45.09804,-1.96079 11.76471,-22.0407 23.52941,-19.35487 35.29412,-21.56863 33.04173,-17.88839 36.94603,-16.35182 39.21569,-13.72549 z"
       style="display:inline;fill:#ffffff;fill-opacity:1;fill-rule:evenodd;stroke:none;stroke-width:1px;stroke-linecap:butt;stroke-linejoin:miter;stroke-opacity:1" />
  </g>
</svg>
